HIERARCHY
ROOT Hips
{
	OFFSET 0.00 0.00 0.00
	CHANNELS 6 Xposition Yposition Zposition Yrotation Xrotation Zrotation
	JOINT Spine
	{
		OFFSET	0.0000	9.2263	1.5771
		CHANNELS 3 Xrotation Yrotation Zrotation
		JOINT Spine1
		{
			OFFSET	0.0000	16.2540	-0.1656
			CHANNELS 3 Xrotation Yrotation Zrotation
			JOINT Spine2
			{
				OFFSET	0.0000	13.6396	-1.2923
				CHANNELS 3 Xrotation Yrotation Zrotation
				JOINT Neck
				{
					OFFSET	0.0000	13.8774	-4.3542
					CHANNELS 3 Xrotation Yrotation Zrotation
					JOINT Neck1
					{
						OFFSET	0.0000	4.3400	0.9269
						CHANNELS 3 Xrotation Yrotation Zrotation
						JOINT Head
						{
							OFFSET	0.0000	4.0266	0.8585
							CHANNELS 3 Xrotation Yrotation Zrotation
							End Site
							{
								OFFSET 0.0000 23.0297 0.1231
							}
						}
					}
				}
				JOINT LeftShoulder
				{
					OFFSET	6.1442	10.1870	-3.7932
					CHANNELS 3 Zrotation Xrotation Yrotation
					JOINT LeftArm
					{
						OFFSET	12.3191	-1.1130	-1.7935
						CHANNELS 3 Zrotation Xrotation Yrotation
						JOINT LeftForeArm
						{
							OFFSET	27.6870	0.0000	0.0000
							CHANNELS 3 Xrotation Zrotation Yrotation
							JOINT LeftHand
							{
								OFFSET	27.8738	0.0000	0.0000
								CHANNELS 3 Zrotation Yrotation Xrotation
								JOINT LeftHandThumb1
								{
									OFFSET	2.3785	-1.0029	2.6209
									CHANNELS 3 Zrotation Xrotation Yrotation
									JOINT LeftHandThumb2
									{
										OFFSET	3.3624	-1.0029	2.8398
										CHANNELS 3 Zrotation Xrotation Yrotation
										JOINT LeftHandThumb3
										{
											OFFSET	4.5018	-1.3445	2.1783
											CHANNELS 3 Zrotation Xrotation Yrotation
											End Site
											{
												OFFSET 2.6000 -1.0000 1.0000
											}
										}
									}
								}
								JOINT LeftHandMiddle1
								{
									OFFSET	10.4639	0.6148	0.4298
									CHANNELS 3 Zrotation Xrotation Yrotation
									JOINT LeftHandMiddle2
									{
										OFFSET	5.7921	0.0000	0.0000
										CHANNELS 3 Zrotation Xrotation Yrotation
										JOINT LeftHandMiddle3
										{
											OFFSET	3.7132	0.0000	0.0000
											CHANNELS 3 Zrotation Xrotation Yrotation
											End Site
											{
												OFFSET 2.3000 0.0000 0.0000
											}
										}
									}
								}
								JOINT LeftHandIndex1
								{
									OFFSET	10.3945	0.6148	2.7055
									CHANNELS 3 Zrotation Xrotation Yrotation
									JOINT LeftHandIndex2
									{
										OFFSET	5.5493	0.0000	0.0000
										CHANNELS 3 Zrotation Xrotation Yrotation
										JOINT LeftHandIndex3
										{
											OFFSET	3.3911	0.0000	0.0000
											CHANNELS 3 Zrotation Xrotation Yrotation
											End Site
											{
												OFFSET 2.5000 0.0000 0.0000
											}
										}
									}
								}
								JOINT LeftHandRing1
								{
									OFFSET	10.3252	0.3211	-1.8755
									CHANNELS 3 Zrotation Xrotation Yrotation
									JOINT LeftHandRing2
									{
										OFFSET	5.4452	0.0000	0.0000
										CHANNELS 3 Zrotation Xrotation Yrotation
										JOINT LeftHandRing3
										{
											OFFSET	3.7132	0.0000	0.0000
											CHANNELS 3 Zrotation Xrotation Yrotation
											End Site
											{
												OFFSET 2.0000 0.0000 0.0000
											}
										}
									}
								}
								JOINT LeftHandPinky1
								{
									OFFSET	10.0130	-0.0783	-3.9671
									CHANNELS 3 Zrotation Xrotation Yrotation
									JOINT LeftHandPinky2
									{
										OFFSET	3.6763	0.0000	0.0000
										CHANNELS 3 Zrotation Xrotation Yrotation
										JOINT LeftHandPinky3
										{
											OFFSET	2.8113	0.0000	0.0000
											CHANNELS 3 Zrotation Xrotation Yrotation
											End Site
											{
												OFFSET 2.9000 0.0000 0.0000
											}
										}
									}
								}
							}
						}
					}
				}
				JOINT RightShoulder
				{
					OFFSET	-6.1402	10.1870	-3.7932
					CHANNELS 3 Zrotation Xrotation Yrotation
					JOINT RightArm
					{
						OFFSET	-12.3231	-1.1130	-1.7935
						CHANNELS 3 Zrotation Xrotation Yrotation
						JOINT RightForeArm
						{
							OFFSET	-27.6870	0.0000	0.0000
							CHANNELS 3 Xrotation Zrotation Yrotation
							JOINT RightHand
							{
								OFFSET	-27.8738	0.0000	0.0000
								CHANNELS 3 Zrotation Yrotation Xrotation
								JOINT RightHandThumb1
								{
									OFFSET	-2.5178	-0.9367	2.5137
									CHANNELS 3 Zrotation Xrotation Yrotation
									JOINT RightHandThumb2
									{
										OFFSET	-3.2638	-1.0870	2.9669
										CHANNELS 3 Zrotation Xrotation Yrotation
										JOINT RightHandThumb3
										{
											OFFSET	-4.4165	-1.3703	2.1350
											CHANNELS 3 Zrotation Xrotation Yrotation
											End Site
											{
												OFFSET -2.6000 -1.0000 1.0000
											}
										}
									}
								}
								JOINT RightHandIndex1
								{
									OFFSET	-10.4665	0.4896	2.7120
									CHANNELS 3 Zrotation Xrotation Yrotation
									JOINT RightHandIndex2
									{
										OFFSET	-5.3768	0.0000	0.0000
										CHANNELS 3 Zrotation Xrotation Yrotation
										JOINT RightHandIndex3
										{
											OFFSET	-3.3855	0.0000	0.0000
											CHANNELS 3 Zrotation Xrotation Yrotation
											End Site
											{
												OFFSET -2.6000 0.0000 0.0000
											}
										}
									}
								}
								JOINT RightHandMiddle1
								{
									OFFSET	-10.7596	0.4896	0.4278
									CHANNELS 3 Zrotation Xrotation Yrotation
									JOINT RightHandMiddle2
									{
										OFFSET	-5.6168	0.0000	0.0000
										CHANNELS 3 Zrotation Xrotation Yrotation
										JOINT RightHandMiddle3
										{
											OFFSET	-3.7364	0.0000	0.0000
											CHANNELS 3 Zrotation Xrotation Yrotation
											End Site
											{
												OFFSET -2.3000 0.0000 0.0000
											}
										}
									}
								}
								JOINT RightHandRing1
								{
									OFFSET	-10.4702	0.3879	-1.9363
									CHANNELS 3 Zrotation Xrotation Yrotation
									JOINT RightHandRing2
									{
										OFFSET	-5.4013	0.0000	0.0000
										CHANNELS 3 Zrotation Xrotation Yrotation
										JOINT RightHandRing3
										{
											OFFSET	-3.3916	0.0000	0.0000
											CHANNELS 3 Zrotation Xrotation Yrotation
											End Site
											{
												OFFSET -2.2000 0.0000 0.0000
											}
										}
									}
								}
								JOINT RightHandPinky1
								{
									OFFSET	-9.9715	-0.1191	-3.9540
									CHANNELS 3 Zrotation Xrotation Yrotation
									JOINT RightHandPinky2
									{
										OFFSET	-3.6528	0.0000	0.0000
										CHANNELS 3 Zrotation Xrotation Yrotation
										JOINT RightHandPinky3
										{
											OFFSET	-2.7820	0.0000	0.0000
											CHANNELS 3 Zrotation Xrotation Yrotation
											End Site
											{
												OFFSET -2.9000 0.0000 0.0000
											}
										}
									}
								}
							}
						}
					}
				}
			}
		}
	}
	JOINT LeftUpLeg
	{
		OFFSET	9.6338	-3.2733	0.0000
		CHANNELS 3 Xrotation Yrotation Zrotation
		JOINT LeftLeg
		{
			OFFSET	0.0000	-41.7300	-1.7300
			CHANNELS 3 Xrotation Yrotation Zrotation
			JOINT LeftFoot
			{
				OFFSET	0.0126	-39.1900	-0.8477
				CHANNELS 3 Xrotation Yrotation Zrotation
				JOINT LeftToeBase
				{
					OFFSET	-0.1833	-12.1931	8.2823
					CHANNELS 3 Xrotation Yrotation Zrotation
					End Site
					{
						OFFSET 0.0000 0.0000 10.1681
					}
				}
			}
		}
	}
	JOINT RightUpLeg
	{
		OFFSET	-9.6338	-3.2733	0.0000
		CHANNELS 3 Xrotation Yrotation Zrotation
		JOINT RightLeg
		{
			OFFSET	0.0000	-41.7300	-1.7300
			CHANNELS 3 Xrotation Yrotation Zrotation
			JOINT RightFoot
			{
				OFFSET	0.0126	-39.1900	-0.8477
				CHANNELS 3 Xrotation Yrotation Zrotation
				JOINT RightToeBase
				{
					OFFSET	-0.1833	-12.1931	8.2823
					CHANNELS 3 Xrotation Yrotation Zrotation
					End Site
					{
						OFFSET 0.0032 0.0000 10.1681
					}
				}
			}
		}
	}
}
MOTION
Frames: 9
Frame Time: 0.0333333
0.0530 94.5408 4.9028 10.2033 -7.1956 2.8981 13.1338 0.5424 -1.1475 1.6535 0.1704 0.4521 1.6529 0.1740 0.4493 1.6694 -3.1253 0.4194 -0.0000 0.0000 -0.0000 -3.0699 -5.6077 -3.1676 -14.9777 -0.1123 4.0176 -51.4695 27.2243 4.7134 -0.0000 0.0000 -100.1594 -0.8610 -10.7328 -14.8879 5.1058 7.8207 6.8930 11.9730 1.1216 15.6757 14.9786 -13.0865 -15.3442 -42.2226 0.0044 -5.4519 -122.6433 0.0231 -0.0126 -35.9643 0.0029 -0.0088 -42.4207 0.0045 0.3546 -122.5387 0.0231 -0.0127 -36.2592 0.0029 -0.0089 -52.0502 0.0065 0.4263 -122.7240 0.0232 -0.0126 -35.8205 0.0028 -0.0088 -56.1580 0.0073 -7.5949 -111.2523 0.0205 -0.0140 -48.6700 0.0051 -0.0113 20.0164 3.3367 9.0454 57.4615 -21.5536 12.1869 -0.0000 -0.0000 14.4450 7.9831 -5.5135 38.0652 -1.2924 1.6456 -8.4809 -1.3902 4.4170 -16.5879 -18.1707 -5.4290 -6.2254 14.1936 0.0003 0.0023 32.3707 0.0012 0.0042 11.5005 0.0002 0.0016 21.9165 0.0007 0.0033 32.4007 0.0012 0.0042 11.2059 0.0002 0.0015 25.5021 0.0009 0.0037 32.4536 0.0012 0.0042 11.0635 0.0001 0.0015 26.9926 0.0010 0.0039 32.5432 0.0012 0.0043 10.5172 0.0001 0.0014 -16.1122 -1.9580 0.1638 56.2055 -4.9287 -0.2388 1.1337 3.9992 -10.8712 -5.0940 0.0000 -0.0000 -4.4421 -0.3835 -0.1802 27.3403 -9.9901 0.3923 -15.9709 -2.5485 -0.4217 -2.0031 0.0000 -0.0000 
0.3233 94.8147 7.3577 10.1324 -7.0956 3.8354 12.9006 1.1399 -1.9338 1.5885 0.2742 0.1404 1.5870 0.2756 0.1343 1.9563 -3.1143 0.2174 -0.0000 0.0000 -0.0000 -1.4355 -5.2108 -3.4102 -15.1933 -0.1484 4.1784 -51.6737 27.0791 4.9502 -0.0000 -0.0000 -100.3912 0.0397 -10.9292 -14.0164 5.1058 7.8208 6.8930 11.9730 1.1216 15.6757 14.9786 -13.0865 -15.3442 -42.2226 0.0044 -5.4519 -122.6433 0.0232 -0.0127 -35.9643 0.0028 -0.0088 -42.4207 0.0045 0.3546 -122.5387 0.0231 -0.0127 -36.2592 0.0029 -0.0089 -52.0502 0.0065 0.4263 -122.7240 0.0232 -0.0127 -35.8206 0.0028 -0.0088 -56.1580 0.0073 -7.5949 -111.2523 0.0205 -0.0140 -48.6700 0.0051 -0.0113 19.2873 3.3121 9.2790 57.4953 -19.6336 13.6451 0.0000 0.0000 15.5588 8.8055 -6.0443 38.8010 -1.2925 1.6456 -8.4809 -1.3901 4.4170 -16.5879 -18.1707 -5.4290 -6.2254 14.1936 0.0003 0.0023 32.3707 0.0012 0.0042 11.5005 0.0002 0.0016 21.9165 0.0007 0.0033 32.4007 0.0012 0.0042 11.2059 0.0001 0.0015 25.5021 0.0009 0.0037 32.4536 0.0012 0.0042 11.0635 0.0001 0.0015 26.9926 0.0010 0.0039 32.5432 0.0012 0.0043 10.5172 0.0001 0.0014 -18.1124 -1.8379 -1.6248 49.4588 -2.5940 -0.1511 -4.1467 4.1070 -11.1304 -1.3059 -0.0000 -0.0000 -1.8047 -1.3150 -1.3548 25.3405 -9.0991 0.5737 -16.7593 -2.3226 -0.6109 -1.9623 0.0000 -0.0000 
0.6770 94.9476 9.9470 9.8619 -6.6260 4.5641 12.4262 1.9253 -2.5137 1.5539 0.4061 -0.1103 1.5516 0.4055 -0.1195 2.1479 -3.1006 -0.0441 -0.0000 0.0000 -0.0000 -0.2757 -4.8742 -3.8850 -15.7272 -0.2222 4.4867 -51.6934 27.0071 4.9144 -0.0000 -0.0000 -100.3802 0.6258 -11.4160 -13.6049 5.1058 7.8207 6.8930 11.9731 1.1216 15.6757 14.9786 -13.0865 -15.3443 -42.2226 0.0044 -5.4519 -122.6433 0.0232 -0.0126 -35.9643 0.0029 -0.0088 -42.4207 0.0045 0.3546 -122.5387 0.0231 -0.0127 -36.2592 0.0029 -0.0089 -52.0502 0.0065 0.4263 -122.7240 0.0232 -0.0127 -35.8205 0.0028 -0.0088 -56.1580 0.0073 -7.5949 -111.2524 0.0205 -0.0140 -48.6700 0.0051 -0.0113 18.6196 3.2893 9.5004 57.1856 -17.7464 14.9021 0.0000 -0.0000 16.8922 9.4894 -6.2122 38.8583 -1.2925 1.6456 -8.4809 -1.3901 4.4170 -16.5879 -18.1707 -5.4290 -6.2254 14.1935 0.0003 0.0023 32.3707 0.0012 0.0042 11.5005 0.0002 0.0016 21.9165 0.0007 0.0033 32.4007 0.0012 0.0042 11.2059 0.0002 0.0015 25.5021 0.0009 0.0037 32.4536 0.0012 0.0042 11.0635 0.0001 0.0015 26.9926 0.0010 0.0039 32.5432 0.0012 0.0042 10.5172 0.0001 0.0014 -20.6086 -1.9362 -2.8707 42.6544 -0.0110 -0.1323 -8.1177 4.1859 -11.5382 0.9869 0.0000 0.0000 0.5076 -2.1793 -2.3218 23.3391 -8.1501 0.7674 -17.5927 -2.0754 -0.7353 -2.0227 0.0000 -0.0000 
1.1087 94.9576 12.6847 9.1824 -5.8997 4.9047 11.7937 2.9403 -2.6859 1.5331 0.5686 -0.2920 1.5309 0.5663 -0.3042 2.2427 -3.0780 -0.3557 -0.0000 0.0000 -0.0000 0.3596 -4.4758 -4.6378 -16.4825 -0.3182 4.8702 -51.8472 26.8536 4.8056 0.0000 -0.0000 -100.3186 0.7819 -11.9672 -13.5740 5.1058 7.8207 6.8930 11.9730 1.1216 15.6756 14.9786 -13.0865 -15.3442 -42.2226 0.0044 -5.4519 -122.6433 0.0231 -0.0127 -35.9643 0.0029 -0.0088 -42.4207 0.0045 0.3546 -122.5387 0.0231 -0.0127 -36.2592 0.0029 -0.0089 -52.0502 0.0065 0.4263 -122.7240 0.0232 -0.0127 -35.8205 0.0028 -0.0088 -56.1580 0.0073 -7.5949 -111.2523 0.0205 -0.0140 -48.6700 0.0051 -0.0113 18.0302 3.2829 9.7615 56.5569 -16.0722 15.8893 -0.0000 -0.0000 18.4188 9.8868 -6.0110 38.3493 -1.2925 1.6456 -8.4809 -1.3901 4.4170 -16.5879 -18.1707 -5.4290 -6.2254 14.1936 0.0003 0.0023 32.3707 0.0012 0.0042 11.5005 0.0002 0.0016 21.9165 0.0007 0.0033 32.4007 0.0012 0.0042 11.2059 0.0001 0.0015 25.5021 0.0009 0.0037 32.4536 0.0013 0.0042 11.0635 0.0001 0.0015 26.9926 0.0010 0.0039 32.5432 0.0013 0.0043 10.5172 0.0001 0.0014 -22.5003 -2.1048 -3.7100 35.2875 3.4225 0.1535 -13.6043 4.2670 -11.0183 3.2978 0.0000 0.0000 2.7135 -3.0209 -2.9852 21.1206 -6.8161 1.0288 -18.2666 -1.8285 -0.9073 -2.1892 -0.0000 -0.0000 
1.6254 94.7789 15.4458 8.0772 -5.1858 4.7549 11.1498 4.0245 -2.3797 1.5110 0.7337 -0.4065 1.5099 0.7300 -0.4211 2.2555 -3.0335 -0.6764 -0.0000 0.0000 -0.0000 0.5336 -3.8489 -5.6111 -17.2650 -0.4155 5.2398 -52.4503 26.5067 4.8372 0.0000 -0.0000 -100.4025 0.6128 -12.3528 -13.7192 5.1058 7.8207 6.8930 11.9730 1.1216 15.6757 14.9786 -13.0865 -15.3443 -42.2226 0.0044 -5.4519 -122.6433 0.0231 -0.0127 -35.9643 0.0028 -0.0088 -42.4207 0.0045 0.3546 -122.5387 0.0231 -0.0127 -36.2592 0.0029 -0.0089 -52.0502 0.0065 0.4263 -122.7240 0.0231 -0.0127 -35.8205 0.0028 -0.0088 -56.1580 0.0073 -7.5949 -111.2523 0.0205 -0.0140 -48.6700 0.0051 -0.0113 17.5381 3.2974 10.0695 55.7880 -14.8286 16.6868 -0.0000 -0.0000 19.9498 9.9635 -5.5704 37.6559 -1.2925 1.6456 -8.4809 -1.3901 4.4170 -16.5879 -18.1707 -5.4290 -6.2254 14.1935 0.0003 0.0023 32.3707 0.0012 0.0042 11.5005 0.0002 0.0016 21.9165 0.0007 0.0033 32.4007 0.0012 0.0042 11.2059 0.0001 0.0016 25.5021 0.0009 0.0037 32.4536 0.0012 0.0042 11.0635 0.0002 0.0015 26.9926 0.0010 0.0039 32.5432 0.0012 0.0043 10.5172 0.0001 0.0014 -22.9839 -2.4211 -3.9176 25.6680 6.3320 0.5922 -16.6748 3.9853 -9.5231 3.4731 -0.0000 0.0000 4.9767 -3.7277 -3.2853 18.8288 -5.1647 1.3459 -18.9394 -1.5774 -1.0523 -2.2791 -0.0000 -0.0000 
2.2293 94.3400 18.2733 6.8205 -4.6803 4.1426 10.6383 4.8867 -1.7315 1.4993 0.8565 -0.4625 1.4999 0.8516 -0.4785 2.2106 -2.9565 -0.9381 -0.0000 0.0000 -0.0000 0.3929 -2.9101 -6.6021 -17.8991 -0.5003 5.5466 -53.4897 26.0461 5.0450 0.0000 -0.0000 -100.7300 0.4718 -12.4879 -13.8650 5.1058 7.8207 6.8930 11.9730 1.1216 15.6756 14.9786 -13.0865 -15.3443 -42.2226 0.0044 -5.4519 -122.6433 0.0231 -0.0127 -35.9642 0.0029 -0.0088 -42.4207 0.0045 0.3546 -122.5387 0.0231 -0.0127 -36.2592 0.0029 -0.0089 -52.0502 0.0065 0.4263 -122.7240 0.0232 -0.0126 -35.8206 0.0029 -0.0088 -56.1580 0.0073 -7.5949 -111.2523 0.0205 -0.0140 -48.6700 0.0051 -0.0113 17.1768 3.3170 10.3439 55.2079 -14.2184 17.5357 -0.0000 -0.0000 21.1415 9.8327 -5.0863 37.2626 -1.2925 1.6456 -8.4809 -1.3901 4.4170 -16.5879 -18.1707 -5.4290 -6.2254 14.1936 0.0003 0.0023 32.3707 0.0012 0.0042 11.5005 0.0002 0.0016 21.9165 0.0007 0.0033 32.4007 0.0012 0.0043 11.2059 0.0002 0.0015 25.5021 0.0009 0.0037 32.4536 0.0012 0.0042 11.0635 0.0001 0.0015 26.9926 0.0010 0.0039 32.5432 0.0012 0.0043 10.5172 0.0001 0.0014 -25.0126 -2.6372 -3.4799 22.1360 7.0557 0.8296 -21.9157 3.6719 -7.9214 3.9372 -0.0000 -0.0000 7.3371 -4.3525 -3.2436 16.9338 -3.4652 1.6691 -19.9138 -1.2650 -1.0681 -2.3145 -0.0000 -0.0000 
2.9115 93.7732 21.2453 5.7935 -4.4510 3.5310 10.3296 5.3405 -1.2809 1.5399 0.9200 -0.4750 1.5418 0.9149 -0.4904 2.1368 -2.8524 -1.0788 -0.0000 0.0000 -0.0000 0.0776 -1.7418 -7.3380 -18.3534 -0.5717 5.7961 -54.5471 25.7416 5.2396 -0.0000 -0.0000 -101.2376 0.6641 -12.4439 -14.0332 5.1058 7.8207 6.8930 11.9730 1.1216 15.6756 14.9786 -13.0865 -15.3442 -42.2226 0.0044 -5.4519 -122.6433 0.0232 -0.0127 -35.9643 0.0029 -0.0088 -42.4207 0.0045 0.3546 -122.5387 0.0231 -0.0127 -36.2592 0.0029 -0.0089 -52.0502 0.0065 0.4263 -122.7240 0.0232 -0.0126 -35.8205 0.0028 -0.0088 -56.1580 0.0073 -7.5949 -111.2523 0.0205 -0.0140 -48.6700 0.0051 -0.0113 17.0022 3.3297 10.4826 55.1779 -14.3906 18.5972 -0.0000 -0.0000 21.6790 9.5740 -4.6441 37.3458 -1.2925 1.6456 -8.4809 -1.3901 4.4170 -16.5879 -18.1707 -5.4290 -6.2254 14.1935 0.0003 0.0023 32.3707 0.0012 0.0043 11.5005 0.0002 0.0016 21.9165 0.0007 0.0033 32.4007 0.0012 0.0042 11.2059 0.0001 0.0015 25.5021 0.0009 0.0037 32.4536 0.0012 0.0042 11.0635 0.0001 0.0015 26.9926 0.0010 0.0039 32.5432 0.0012 0.0042 10.5172 0.0001 0.0014 -26.0524 -2.7497 -2.9179 19.8850 5.4409 0.7217 -22.0034 2.9766 -5.8661 3.0649 -0.0000 0.0000 10.2609 -5.0003 -3.2068 14.7182 -2.1836 1.9232 -20.8339 -0.7771 -0.8593 -2.9542 0.0000 -0.0000 
3.6674 93.1968 24.4154 4.9185 -4.5983 3.3970 10.1652 5.4701 -1.4847 1.6566 0.9465 -0.4831 1.6581 0.9412 -0.4986 2.0852 -2.7397 -1.0807 -0.0000 0.0000 -0.0000 -0.2214 -0.5032 -7.6119 -18.6921 -0.6284 5.9900 -55.1438 25.8460 5.2348 0.0000 -0.0000 -101.7370 1.1455 -12.2971 -14.3418 5.1058 7.8208 6.8930 11.9730 1.1216 15.6757 14.9786 -13.0865 -15.3443 -42.2226 0.0044 -5.4519 -122.6433 0.0231 -0.0127 -35.9643 0.0029 -0.0088 -42.4207 0.0046 0.3546 -122.5387 0.0231 -0.0127 -36.2592 0.0029 -0.0089 -52.0502 0.0065 0.4263 -122.7240 0.0232 -0.0126 -35.8205 0.0028 -0.0088 -56.1580 0.0073 -7.5949 -111.2523 0.0205 -0.0140 -48.6700 0.0051 -0.0113 17.0538 3.3345 10.4757 55.9665 -15.3620 19.7119 -0.0000 0.0000 21.4487 9.0552 -4.2059 37.5839 -1.2925 1.6456 -8.4809 -1.3901 4.4170 -16.5879 -18.1707 -5.4290 -6.2254 14.1935 0.0003 0.0023 32.3707 0.0012 0.0042 11.5005 0.0002 0.0016 21.9165 0.0007 0.0033 32.4007 0.0012 0.0042 11.2059 0.0001 0.0016 25.5021 0.0009 0.0037 32.4536 0.0012 0.0042 11.0635 0.0001 0.0015 26.9926 0.0010 0.0039 32.5432 0.0012 0.0043 10.5172 0.0001 0.0014 -26.2697 -2.6561 -2.8968 19.3368 3.0427 0.5429 -15.3378 2.2864 -4.4523 0.5673 -0.0000 0.0000 13.2810 -5.7403 -3.7025 13.1070 -1.5065 2.0887 -21.2253 -0.0090 -0.3192 -4.2082 0.0000 -0.0000 
4.5061 92.7533 27.7760 3.7194 -5.1173 3.9040 10.0114 5.4282 -2.4104 1.8001 0.9570 -0.5484 1.7996 0.9523 -0.5630 2.1202 -2.6316 -0.9900 -0.0000 0.0000 -0.0000 -0.1845 0.7178 -7.4162 -18.9534 -0.6605 6.0923 -55.0989 26.4037 5.0476 -0.0000 0.0000 -102.0361 1.5718 -12.0521 -14.8127 5.1058 7.8207 6.8930 11.9730 1.1216 15.6756 14.9786 -13.0865 -15.3443 -42.2226 0.0044 -5.4519 -122.6433 0.0231 -0.0127 -35.9643 0.0029 -0.0088 -42.4207 0.0045 0.3546 -122.5387 0.0231 -0.0127 -36.2592 0.0029 -0.0089 -52.0502 0.0065 0.4263 -122.7240 0.0232 -0.0127 -35.8205 0.0028 -0.0088 -56.1580 0.0073 -7.5949 -111.2523 0.0205 -0.0140 -48.6700 0.0051 -0.0113 17.2871 3.3496 10.4140 57.6051 -16.9174 20.4473 0.0000 0.0000 20.5634 8.0290 -3.7884 37.3644 -1.2925 1.6456 -8.4809 -1.3901 4.4170 -16.5879 -18.1707 -5.4290 -6.2254 14.1935 0.0003 0.0023 32.3707 0.0012 0.0042 11.5005 0.0002 0.0016 21.9165 0.0007 0.0033 32.4007 0.0012 0.0042 11.2059 0.0002 0.0015 25.5021 0.0009 0.0037 32.4536 0.0012 0.0043 11.0635 0.0002 0.0015 26.9926 0.0010 0.0039 32.5432 0.0012 0.0043 10.5172 0.0001 0.0014 -25.3198 -2.3586 -3.5535 19.6148 2.2512 0.5084 -5.1439 1.7661 -3.8975 -1.5837 0.0000 -0.0000 15.8979 -6.6151 -5.1318 12.6588 -1.1577 2.2072 -20.5287 1.0706 0.6405 -7.1668 0.0000 -0.0000 
